<svg xmlns="http://www.w3.org/2000/svg" version="1.0" width="726.000000pt" height="485.000000pt" viewBox="0 0 726.000000 485.000000" preserveAspectRatio="xMidYMid meet">
   <g transform="translate(0.000000,485.000000) scale(0.100000,-0.100000)" fill="#fff" stroke="none">
      <path d="M4120 4815 c-224 -31 -394 -81 -575 -170 -211 -103 -372 -221 -540 -397 -134 -139 -198 -230 -319 -451 l-16 -29 -53 32 c-187 112 -370 158 -590 147 -258 -13 -476 -109 -659 -290 -120 -119 -193 -241 -244 -412 -23 -78 -27 -109 -28 -230 -1 -77 3 -165 7 -196 l9 -56 -69 -17 c-157 -40 -349 -138 -492 -253 -427 -341 -621 -913 -490 -1438 68 -269 204 -499 400 -675 191 -171 391 -275 649 -337 71 -16 212 -18 2495 -21 1762 -2 2440 0 2495 8 364 55 683 263 892 580 84 128 119 200 169 350 50 151 70 265 76 435 19 548 -234 1062 -657 1333 -83 53 -226 120 -306 144 l-71 20 -6 172 c-7 250 -50 433 -158 679 -229 520 -746 935 -1304 1046 -212 42 -430 51 -615 26z m122 -1446 c143 -31 273 -149 314 -286 8 -27 78 -383 155 -793 132 -696 141 -751 136 -830 -15 -216 -139 -387 -341 -467 l-71 -28 -773 -3 c-506 -2 -793 1 -830 8 -126 23 -266 113 -335 214 -69 102 -90 173 -91 301 0 101 11 169 138 830 76 396 147 747 158 779 45 136 155 238 293 272 68 17 1169 19 1247 3z m-1060 -2544 l-37 -34 479 -1 480 0 -34 35 -34 35 138 0 137 0 214 -192 c118 -105 215 -193 215 -195 0 -1 -62 -3 -138 -3 l-138 0 -71 65 -71 65 -695 0 -695 0 -72 -65 -72 -65 -141 0 c-122 0 -139 2 -127 14 8 8 107 95 219 195 l203 181 139 0 139 0 -38 -35z" />
      <path d="M3236 3129 c-47 -56 -26 -130 43 -149 21 -6 167 -10 346 -10 179 0 325 4 346 10 70 19 93 103 43 154 l-27 26 -362 0 -363 0 -26 -31z" />
      <path d="M3003 2735 c-17 -7 -39 -27 -47 -44 -9 -16 -46 -180 -82 -363 -76 -381 -77 -403 -20 -455 l36 -33 735 0 735 0 36 33 c56 51 55 74 -19 453 -36 183 -73 346 -82 364 -31 61 -25 60 -672 60 -478 -1 -594 -3 -620 -15z" />
      <path d="M2822 1594 c-100 -60 -116 -211 -30 -291 56 -52 135 -66 203 -34 74 34 105 86 105 174 -1 141 -154 225 -278 151z" />
      <path d="M4239 1597 c-55 -28 -89 -89 -89 -158 0 -84 38 -142 112 -174 136 -56 286 72 250 213 -16 60 -39 91 -88 119 -53 31 -126 31 -185 0z" />
   </g>
</svg>
